<svg version="1.1" id="Layer_1" xmlns="http://www.w3.org/2000/svg" xmlns:xlink="http://www.w3.org/1999/xlink" x="0px" y="0px"
	 width="100%" viewBox="0 0 1024 672" enable-background="new 0 0 1024 672" xml:space="preserve">
<path fill="#000000" opacity="1.000000" stroke="none" 
	d="
M477.182861,347.356262 
	C450.740051,352.453735 424.552917,356.218201 397.971313,355.221497 
	C385.030426,354.736298 372.056152,353.471985 359.892426,348.354034 
	C356.993591,347.134369 354.157288,345.635315 351.547028,343.884766 
	C343.058594,338.191925 340.274109,329.596497 343.703918,319.878693 
	C347.050323,310.397095 353.909027,303.613922 361.448700,297.436401 
	C372.185394,288.639465 384.188507,281.736237 396.006500,274.562988 
	C396.703613,274.139862 397.448883,273.652771 398.680634,274.576538 
	C398.287598,276.836884 396.050446,277.463379 394.425720,278.515839 
	C384.026154,285.252533 374.227814,292.675751 366.854553,302.813660 
	C365.202484,305.085175 363.726929,307.572845 362.654480,310.161682 
	C359.434723,317.934143 361.853363,325.086670 368.970734,329.648956 
	C377.524506,335.131866 387.297699,336.484039 397.043579,337.658936 
	C417.916107,340.175140 438.543243,337.009979 459.162445,334.411346 
	C465.910553,333.560822 472.542297,331.812958 479.280731,330.849609 
	C482.827271,330.342560 484.958771,328.667358 486.481689,325.570312 
	C490.597534,317.200470 494.826721,308.885803 499.078796,300.584045 
	C499.802734,299.170624 500.136414,297.367889 502.999054,296.385345 
	C509.747772,314.811401 516.497498,333.240295 523.799866,353.178070 
	C535.187256,322.535278 546.037415,293.338135 556.887573,264.140991 
	C557.485962,264.097687 558.084290,264.054382 558.682678,264.011047 
	C563.342773,276.830933 568.002869,289.650818 572.968994,303.312622 
	C611.391174,281.776093 645.481018,256.024719 673.792114,222.364594 
	C669.290527,217.239029 662.793579,215.070129 657.854004,209.342392 
	C678.753845,201.641342 699.067322,194.156357 720.843750,186.132294 
	C714.813293,208.644775 709.110107,229.935318 703.208252,251.967621 
	C697.492432,247.188522 694.813354,241.067902 690.236755,236.639786 
	C687.779480,237.286972 686.589233,239.235321 685.179077,240.775284 
	C664.199890,263.686340 639.605164,282.096008 613.475464,298.619110 
	C599.803406,307.264679 585.505737,314.748138 571.052307,321.977997 
	C567.405762,323.802063 566.079895,322.699097 564.961182,319.269440 
	C562.859985,312.827362 560.461670,306.482147 558.186890,300.096680 
	C557.610962,300.024414 557.034973,299.952148 556.459045,299.879883 
	C545.718750,328.978424 534.978455,358.076996 523.700867,388.631104 
	C515.739258,366.642670 508.304596,346.109650 500.512329,324.588959 
	C497.755890,329.655273 495.256531,333.734711 493.262085,338.047638 
	C490.879974,343.199005 487.301056,346.223145 481.489929,346.424957 
	C480.184570,346.470306 478.895477,346.984833 477.182861,347.356262 
z"/>
<path fill="#000000" opacity="1.000000" stroke="none" 
	d="
M513.060547,398.646942 
	C478.009857,404.192596 443.848755,400.343964 409.748108,393.431122 
	C419.240387,390.433624 428.945679,388.990173 438.360870,386.024078 
	C437.334320,383.335602 435.687103,384.164520 434.387360,384.508636 
	C421.948059,387.801544 409.221191,389.597168 396.440216,389.456451 
	C373.309418,389.201843 351.184784,384.360443 331.228302,371.951630 
	C328.123657,370.021149 325.213837,367.751190 322.916626,364.821594 
	C317.376892,357.756897 315.569855,350.079163 318.717590,341.403503 
	C321.693909,333.200226 326.181244,326.065399 332.281494,320.015656 
	C333.962311,320.931458 333.625275,321.974792 333.340942,322.902130 
	C329.217102,336.352264 337.246063,347.067200 347.144226,353.156097 
	C357.717041,359.660065 369.614136,362.190399 381.740356,363.623840 
	C399.842102,365.763580 418.004333,365.440948 436.081055,363.583771 
	C454.454773,361.696045 472.653351,358.501495 490.686127,354.433044 
	C493.642700,353.765991 495.511566,351.700317 497.206421,349.583374 
	C499.478149,350.184418 499.667786,352.046326 500.207733,353.512878 
	C505.096741,366.793060 509.949829,380.086823 514.717041,393.411072 
	C515.362427,395.214874 517.107971,397.630524 513.060547,398.646942 
z"/>
<path fill="#000000" opacity="1.000000" stroke="none" 
	d="
M601.978027,274.029816 
	C599.080322,275.948639 596.470154,277.653412 593.864014,279.355621 
	C592.048096,277.480255 592.681641,275.554352 592.679626,273.844299 
	C592.632812,233.185516 592.709900,192.526413 592.545898,151.868240 
	C592.526672,147.106796 593.869873,145.466278 598.737488,145.601807 
	C610.059937,145.917038 621.398743,145.820206 632.727173,145.645325 
	C636.635742,145.584991 638.404907,146.570969 638.384888,150.913635 
	C638.246521,180.907181 638.281616,210.901840 638.389465,240.895706 
	C638.400269,243.915939 637.138855,245.848083 635.081970,247.735657 
	C624.759155,257.208710 613.825806,265.904297 601.978027,274.029816 
z"/>
<path fill="#000000" opacity="1.000000" stroke="none" 
	d="
M639.773193,292.719177 
	C646.792358,287.546936 653.524353,282.587921 660.256287,277.628937 
	C660.574585,277.933258 660.892883,278.237610 661.211182,278.541931 
	C646.124390,307.920319 627.383911,334.726135 602.446167,356.690765 
	C582.047974,374.657013 545.346497,393.749542 533.440063,393.893250 
	C533.543579,388.993103 554.187134,333.086334 557.228699,329.468933 
	C563.625549,335.715668 563.673645,335.820282 572.199158,331.899139 
	C595.846252,321.022949 618.449890,308.326385 639.773193,292.719177 
z"/>
<path fill="#000000" opacity="1.000000" stroke="none" 
	d="
M535.781372,276.954681 
	C535.763184,248.479431 535.739441,220.497116 535.733765,192.514816 
	C535.732422,185.961823 535.806519,185.896790 542.494934,185.881271 
	C553.487915,185.855774 564.480896,185.847900 575.473877,185.854752 
	C581.533447,185.858521 581.910034,186.183975 581.886475,192.425201 
	C581.785339,219.234543 581.615906,246.043625 581.523804,272.852997 
	C581.512390,276.175201 581.907959,279.497711 581.935425,282.821564 
	C581.950989,284.714172 582.356750,286.914337 580.000183,287.943909 
	C577.729248,287.577728 577.795654,285.591858 577.255493,284.141937 
	C573.247620,273.383087 569.258179,262.616974 565.353516,251.820358 
	C564.096191,248.343842 562.614441,245.208817 558.256897,245.317001 
	C554.064819,245.421097 552.414978,248.290482 551.120300,251.857254 
	C547.089417,262.962158 542.844116,273.989197 538.669434,285.041718 
	C538.332275,285.934357 538.249451,287.047455 536.657715,287.380188 
	C534.794312,284.245728 536.218933,280.729889 535.781372,276.954681 
z"/>
<path fill="#000000" opacity="1.000000" stroke="none" 
	d="
M423.849274,317.952698 
	C423.860382,298.802612 423.964142,280.143188 423.808716,261.485901 
	C423.770294,256.876373 424.846130,255.121658 430.029175,255.342407 
	C441.666290,255.838028 453.344391,255.609741 464.997955,255.338257 
	C468.509460,255.256439 470.021057,256.310059 469.876190,259.737366 
	C469.039215,279.538971 470.731781,299.355713 469.496765,319.162964 
	C469.298462,322.343506 467.703644,323.076355 465.166656,323.408386 
	C453.799316,324.896210 442.453522,326.571411 431.063049,327.850739 
	C424.053711,328.638000 423.856812,328.211670 423.841766,320.943146 
	C423.840057,320.110138 423.844635,319.277161 423.849274,317.952698 
z"/>
<path fill="#000000" opacity="1.000000" stroke="none" 
	d="
M479.709351,257.000000 
	C479.711304,248.179642 479.804169,239.857880 479.672455,231.539673 
	C479.618408,228.126450 480.925934,226.758072 484.359100,226.791534 
	C496.505768,226.909943 508.654205,226.916718 520.801392,226.852829 
	C523.848572,226.836792 525.383301,227.742996 525.373962,231.104340 
	C525.292358,260.391571 525.314514,289.679108 525.278442,318.966522 
	C525.277527,319.719940 524.965088,320.472931 524.786438,321.277893 
	C522.298340,320.959503 522.294617,319.039764 521.745789,317.594513 
	C517.851074,307.337372 513.958252,297.079376 510.118744,286.801514 
	C508.828278,283.347015 507.157288,280.352997 502.935394,280.226593 
	C498.538300,280.094940 496.572174,283.082764 494.915741,286.574005 
	C491.066864,294.686279 487.116669,302.750671 483.177887,310.819977 
	C482.615631,311.971893 482.336945,313.393860 479.709869,314.193085 
	C479.709869,295.073395 479.709869,276.286682 479.709351,257.000000 
z"/>
<path fill="#000000" opacity="1.000000" stroke="none" 
	d="
M306.291321,491.916412 
	C305.866028,494.684906 307.601349,498.155182 304.385651,498.915070 
	C300.600647,499.809479 296.398010,500.161163 292.674683,498.454254 
	C291.086334,497.726105 291.692261,495.434235 291.687195,493.814514 
	C291.651886,482.511108 291.668518,471.207489 290.849945,459.575317 
	C286.483826,467.291260 282.081238,474.986847 277.761963,482.728882 
	C273.483459,490.397766 267.301056,490.615448 262.830872,483.120026 
	C258.235474,475.414581 253.750977,467.642944 248.712906,459.037659 
	C248.518143,461.031403 248.311035,462.184143 248.307709,463.337433 
	C248.279434,473.159943 248.063293,482.989838 248.381012,492.802032 
	C248.539001,497.681580 247.259705,499.680603 242.009003,499.451843 
	C233.700897,499.089844 234.118408,499.381165 234.309967,490.949097 
	C234.695526,473.977203 234.456726,456.991852 234.677444,440.014648 
	C234.709503,437.549896 232.979752,434.031036 237.025284,432.848450 
	C242.428284,431.268982 249.118652,432.818665 251.016724,436.079224 
	C256.456451,445.423798 261.805054,454.821381 267.208160,464.187347 
	C267.945892,465.466217 268.790192,466.683685 269.867645,468.372345 
	C272.873474,465.433350 274.502380,462.013885 276.390594,458.803467 
	C280.861389,451.202026 285.230042,443.540314 289.728516,435.955444 
	C291.466675,433.024750 302.589478,431.146912 305.153717,433.312897 
	C306.771301,434.679199 306.248230,436.711273 306.252441,438.484833 
	C306.294220,456.132111 306.284637,473.779510 306.291321,491.916412 
z"/>
<path fill="#000000" opacity="1.000000" stroke="none" 
	d="
M613.062012,447.417023 
	C618.530579,464.882294 607.545166,478.316437 588.027161,478.599182 
	C574.286804,478.798248 574.342468,478.798920 574.177612,492.312073 
	C574.149536,494.615997 575.448792,498.098389 572.341614,498.870544 
	C568.387878,499.852997 564.071167,499.962524 560.067444,498.584442 
	C558.773438,498.139038 558.846375,496.333679 558.844604,494.997772 
	C558.818787,475.697266 558.819458,456.396698 558.778625,437.096252 
	C558.772888,434.359711 559.584045,432.626251 562.732239,432.682983 
	C572.708679,432.862732 582.731262,431.980469 592.653381,433.189453 
	C601.615906,434.281525 609.364014,437.737488 613.062012,447.417023 
M596.512451,461.927307 
	C599.723267,457.238373 599.795288,452.490326 596.705017,449.230896 
	C593.551575,445.904816 580.763672,443.208221 576.338623,445.717926 
	C571.973450,448.193695 574.988403,452.976410 574.309448,456.664276 
	C573.955261,458.588593 574.254395,460.636444 574.288940,462.627991 
	C574.313721,464.054993 574.703308,465.548645 576.340393,465.537842 
	C583.022827,465.493866 590.037903,467.358002 596.512451,461.927307 
z"/>
<path fill="#000000" opacity="1.000000" stroke="none" 
	d="
M435.314697,457.283569 
	C440.793396,451.495453 448.060333,449.998444 455.971344,452.971527 
	C454.359161,456.728760 451.243896,459.256042 448.662170,462.167694 
	C447.007690,464.033478 445.297882,465.889313 443.390503,467.483582 
	C439.499298,470.736023 438.999359,473.690582 442.622467,477.809174 
	C447.334595,483.165710 451.378845,489.111389 455.680206,494.826355 
	C456.453156,495.853394 457.528809,496.818726 457.071442,498.346924 
	C447.699341,501.586853 441.403473,499.587585 435.983368,491.715271 
	C433.836792,488.597534 431.621307,485.527191 429.415405,482.404388 
	C423.900146,484.598145 422.831207,488.714050 423.444366,493.484375 
	C424.033905,498.070526 422.380981,500.019104 417.713531,499.363708 
	C416.242401,499.157166 414.715210,499.226288 413.222992,499.319183 
	C409.967041,499.521820 408.804047,497.930756 408.814453,494.821930 
	C408.879791,475.339264 408.900421,455.856262 408.857208,436.373535 
	C408.849884,433.077545 409.960510,431.562378 413.515869,431.626770 
	C424.930267,431.833588 423.215912,430.763031 423.328247,441.045074 
	C423.427795,450.159424 423.349091,459.275696 423.349091,469.236389 
	C428.271667,465.498077 431.670624,461.521423 435.314697,457.283569 
z"/>
<path fill="#000000" opacity="1.000000" stroke="none" 
	d="
M346.058228,451.508545 
	C356.624359,454.567352 361.155365,460.401611 361.225525,470.765747 
	C361.278473,478.585785 361.080078,486.410248 361.278198,494.225525 
	C361.377960,498.160248 359.854370,499.799164 356.011230,499.342529 
	C353.013763,498.986420 349.745850,500.348236 347.168213,497.353607 
	C345.937012,495.923218 344.423340,497.582947 343.164581,498.217438 
	C337.662537,500.990814 331.870117,500.945404 326.117065,499.619110 
	C319.389526,498.068146 314.997559,492.623138 314.704437,486.169983 
	C314.389038,479.226196 317.737854,474.158325 324.420868,471.495728 
	C327.379578,470.316956 330.416077,469.593201 333.644257,469.661774 
	C337.606171,469.745941 341.571259,469.681854 345.796143,469.681854 
	C345.909241,464.423981 342.939423,462.792175 339.036102,462.311340 
	C334.314362,461.729706 329.655457,462.462006 325.406708,464.512787 
	C321.920532,466.195465 320.502686,464.776520 319.620850,461.703461 
	C318.814880,458.894897 316.304291,456.007965 321.211090,454.054596 
	C329.172699,450.885132 337.236145,449.851807 346.058228,451.508545 
M341.280640,479.179962 
	C338.486908,479.255676 335.661041,478.832123 332.947174,479.958557 
	C330.751251,480.870026 329.362061,482.330200 329.364990,484.787506 
	C329.367798,487.140045 330.960236,488.271179 332.903473,489.070526 
	C336.872772,490.703400 343.114471,488.661652 345.069733,484.878815 
	C346.653320,481.815033 346.524506,479.330902 341.280640,479.179962 
z"/>
<path fill="#000000" opacity="1.000000" stroke="none" 
	d="
M496.897858,499.320435 
	C487.450073,500.991882 478.599091,501.226318 470.350311,496.274536 
	C462.615570,491.631317 458.343079,482.153412 459.785370,472.643219 
	C461.335632,462.420807 466.299530,454.795013 476.679596,451.932983 
	C489.855865,448.299988 501.309326,452.909851 505.991058,463.337006 
	C506.331451,464.095093 506.661438,464.865997 506.901825,465.659546 
	C510.740784,478.332947 509.294128,480.336395 496.356781,480.323486 
	C489.397369,480.316528 482.437958,480.322266 475.403595,480.322266 
	C477.037140,489.688690 485.733612,491.176453 502.326874,485.390076 
	C508.128448,492.417511 506.498413,496.938324 496.897858,499.320435 
M477.890930,464.298370 
	C476.269104,465.919159 474.582001,467.511292 475.163666,470.622711 
	C480.274841,470.622711 485.238708,470.604523 490.202393,470.628387 
	C494.252625,470.647858 494.238708,468.560150 492.660187,465.810028 
	C490.217010,461.553497 484.513824,460.814789 477.890930,464.298370 
z"/>
<path fill="#000000" opacity="1.000000" stroke="none" 
	d="
M775.023499,500.323761 
	C759.230957,500.184448 750.288330,494.068634 747.666321,481.020081 
	C743.914612,462.349701 757.321594,448.877045 775.840271,451.041046 
	C789.492554,452.636353 796.799133,463.014984 795.372986,476.907501 
	C795.061096,479.946075 793.471924,480.337524 791.066284,480.324310 
	C783.410767,480.282318 775.754639,480.257568 768.099487,480.320496 
	C766.352600,480.334839 764.427490,479.746185 762.901489,481.179260 
	C764.215210,486.229797 768.154785,489.143494 774.888062,489.489990 
	C780.289917,489.767975 785.094543,487.060760 789.826782,485.429108 
	C790.431335,485.926453 790.840698,486.089691 790.909302,486.344635 
	C793.537781,496.115692 796.034119,496.559906 782.911682,499.553864 
	C780.505615,500.102814 777.969421,500.081573 775.023499,500.323761 
M766.963501,470.673859 
	C771.657776,470.409851 776.432068,471.225861 781.292603,470.030090 
	C781.030945,465.613342 778.919006,463.182831 775.134888,462.362610 
	C770.637207,461.387726 766.509216,462.087433 763.683594,466.189301 
	C761.667786,469.115692 762.281860,470.814087 766.963501,470.673859 
z"/>
<path fill="#000000" opacity="1.000000" stroke="none" 
	d="
M654.657593,477.570496 
	C654.663818,470.464783 654.807495,463.807404 654.617493,457.159546 
	C654.509827,453.393463 655.744080,451.810852 659.719299,451.740631 
	C669.282410,451.571777 669.288208,451.410522 669.300659,461.049133 
	C669.314758,472.027222 669.171265,483.008057 669.387390,493.981995 
	C669.468994,498.127472 668.006836,499.780670 663.904053,499.352600 
	C660.483337,498.995697 656.431335,500.611115 654.612732,495.437744 
	C649.260925,499.976227 643.290161,500.758331 636.967346,500.327087 
	C629.065735,499.788177 622.969360,494.761688 621.796326,486.964417 
	C620.205505,476.389465 621.289795,465.712189 621.166870,455.080139 
	C621.141052,452.843506 622.345825,451.728271 624.601990,451.791107 
	C624.767883,451.795715 624.934875,451.789093 625.100525,451.776672 
	C636.141724,450.947266 636.163635,450.964874 636.148926,462.187134 
	C636.142151,467.343414 636.092957,472.499756 636.112305,477.655914 
	C636.138977,484.745117 638.536499,488.144257 643.706787,488.523804 
	C649.230347,488.929291 654.153320,484.207611 654.657593,477.570496 
z"/>
<path fill="#000000" opacity="1.000000" stroke="none" 
	d="
M738.982239,454.673279 
	C741.988464,458.512177 739.277039,461.604431 737.680420,464.306519 
	C736.388794,466.492523 734.142822,464.023468 732.360352,463.514252 
	C728.206116,462.327393 724.113586,460.734131 719.717102,462.451874 
	C718.580872,462.895813 717.556763,463.470367 717.351807,464.769012 
	C717.103455,466.342316 718.066101,467.368652 719.367126,467.853394 
	C722.166016,468.896179 725.042053,469.729614 727.871582,470.692535 
	C731.961365,472.084351 736.192688,473.253143 739.201843,476.665039 
	C745.372009,483.660980 743.365723,494.091919 734.477356,497.849426 
	C724.333069,502.137817 713.958740,501.534576 704.114136,496.358368 
	C698.925171,493.630005 702.761597,489.990570 703.730835,486.921082 
	C704.787537,483.574890 707.044373,485.417053 708.947205,486.324738 
	C713.500671,488.496857 718.193542,490.267426 723.343628,489.399200 
	C725.208374,489.084839 727.563049,488.667694 727.641663,486.022583 
	C727.707886,483.794861 725.843872,482.929535 724.132935,482.298859 
	C720.080750,480.805206 715.927429,479.582520 711.891113,478.049835 
	C705.178894,475.500916 701.846252,470.882568 702.272949,465.047882 
	C702.738708,458.678986 706.980713,453.516968 713.460266,451.909576 
	C722.131897,449.758392 730.611328,450.202820 738.982239,454.673279 
z"/>
<path fill="#000000" opacity="1.000000" stroke="none" 
	d="
M534.192322,443.119293 
	C534.199402,444.908325 534.274780,446.242981 534.197144,447.568726 
	C534.028625,450.447327 535.133789,452.006500 538.214905,451.795380 
	C539.373047,451.716034 540.542419,451.798157 541.706665,451.811005 
	C547.760803,451.877838 550.130432,455.405579 548.087280,461.143311 
	C547.251343,463.490967 545.348999,463.192719 543.564392,463.271942 
	C534.182983,463.688324 534.183411,463.681610 534.204834,473.123108 
	C534.211609,476.117035 534.130920,479.113861 534.235168,482.104279 
	C534.422607,487.480499 537.381042,489.904968 542.437439,488.036194 
	C546.981079,486.356995 548.487183,487.687042 549.665955,492.051514 
	C550.952393,496.814636 549.513733,498.766174 544.917542,499.635712 
	C540.766479,500.421082 536.628296,500.613434 532.516907,500.079285 
	C524.216370,499.000824 519.746399,494.075226 519.275391,485.223938 
	C519.002441,480.095001 519.389221,474.924561 519.604553,469.778076 
	C519.772217,465.771545 519.035706,463.025330 513.998779,463.161194 
	C509.742950,463.276001 510.980133,459.635681 510.890411,457.205688 
	C510.790955,454.511597 510.663879,451.527313 514.745605,451.763428 
	C517.866638,451.943939 519.665649,451.240936 519.723145,447.459076 
	C519.845886,439.384125 520.044312,439.410828 527.939453,437.419525 
	C529.703552,436.974579 531.401245,436.214935 533.288452,436.900970 
	C534.698303,438.652161 533.999268,440.729034 534.192322,443.119293 
z"/>
<path fill="#000000" opacity="1.000000" stroke="none" 
	d="
M694.239868,441.049591 
	C694.240967,458.358948 694.247131,475.174408 694.239624,491.989838 
	C694.236389,499.298462 694.223633,499.298523 686.716431,499.320251 
	C686.050476,499.322205 685.375427,499.251984 684.720032,499.336029 
	C680.330383,499.898926 678.908875,497.920044 678.947449,493.620972 
	C679.117981,474.642700 679.108337,455.661957 679.012085,436.682831 
	C678.992371,432.786377 680.452271,431.112823 684.323181,431.618988 
	C684.650574,431.661774 684.988403,431.626007 685.321350,431.625488 
	C694.188110,431.612122 694.188110,431.612091 694.239868,441.049591 
z"/>
<path fill="#000000" opacity="1.000000" stroke="none" 
	d="
M392.965790,464.631989 
	C387.179413,466.681122 384.805603,470.438538 385.047058,476.230774 
	C385.303162,482.373566 385.012909,488.537262 385.148346,494.687714 
	C385.223663,498.108002 383.824951,499.299072 380.421448,499.394104 
	C369.967468,499.686096 369.970459,499.801575 369.998505,489.435028 
	C370.025513,479.456573 369.963989,469.476562 370.138397,459.500671 
	C370.186401,456.753540 368.980652,453.144165 373.059204,451.968018 
	C378.632782,450.360748 382.365356,451.869385 384.693115,456.687195 
	C388.102692,453.593384 392.015900,451.610779 396.527802,450.904694 
	C401.765411,450.085052 403.475250,451.477722 403.372559,456.712769 
	C403.324738,459.151459 403.799469,461.657593 402.823181,464.221954 
	C399.570709,464.665771 396.394531,463.440552 392.965790,464.631989 
z"/>
</svg>